<?xml version="1.0" standalone="no"?>
<!DOCTYPE svg PUBLIC "-//W3C//DTD SVG 20010904//EN"
 "http://www.w3.org/TR/2001/REC-SVG-20010904/DTD/svg10.dtd">
<svg version="1.0" xmlns="http://www.w3.org/2000/svg"
 width="300.000000pt" height="300.000000pt" viewBox="0 0 300.000000 300.000000"
 preserveAspectRatio="xMidYMid meet">
<metadata>
Created by potrace 1.11, written by Peter Selinger 2001-2013
</metadata>
<g transform="translate(0.000000,300.000000) scale(0.100000,-0.100000)"
fill="#000000" stroke="none">
<path d="M196 2909 c-36 -29 -34 -65 13 -190 56 -150 117 -336 132 -405 7 -32
13 -61 14 -64 1 -3 5 -32 9 -65 4 -33 9 -70 11 -82 2 -12 -4 -39 -14 -60 -31
-67 -42 -142 -37 -268 3 -66 7 -129 9 -140 4 -18 13 -73 22 -135 37 -253 36
-233 16 -292 -35 -102 -65 -151 -234 -390 -132 -186 -139 -206 -94 -255 21
-23 44 -28 84 -17 32 9 313 410 366 524 29 62 57 162 57 204 0 34 -16 152 -35
256 -3 14 -7 45 -10 70 -3 25 -9 59 -12 75 -11 58 -11 207 2 253 6 26 20 62
30 81 14 29 16 49 11 115 -9 116 -40 255 -90 410 -24 75 -38 133 -32 129 33
-19 117 -94 159 -142 42 -48 63 -86 131 -230 15 -32 62 -52 95 -40 63 25 184
52 286 65 28 3 59 8 70 11 42 10 363 12 420 2 83 -13 83 -13 143 -33 71 -24
122 -73 123 -117 1 -54 6 -71 29 -93 20 -21 27 -21 483 -21 l462 0 -1 -37 c-1
-21 -8 -48 -17 -61 -17 -27 -95 -67 -142 -74 -16 -2 -41 -7 -55 -10 -14 -3
-140 -7 -280 -10 -286 -5 -294 -7 -317 -77 -11 -30 -10 -43 3 -76 25 -61 100
-108 294 -180 47 -17 126 -47 175 -65 50 -19 103 -39 118 -44 28 -11 28 -11
10 -38 -25 -39 -38 -52 -65 -61 -43 -16 -150 -1 -368 53 -311 77 -358 79 -404
13 -34 -49 -13 -104 75 -191 103 -103 130 -223 124 -552 -3 -115 -7 -230 -10
-255 -2 -25 -9 -81 -14 -125 -6 -44 -13 -103 -16 -132 -3 -29 -9 -73 -14 -98
l-8 -45 82 0 83 0 6 43 c4 24 9 55 11 68 2 13 6 49 10 79 3 30 7 69 9 85 2 17
7 68 11 115 4 47 9 96 11 110 5 32 5 355 0 395 -3 17 -7 53 -10 80 -9 78 -44
192 -71 235 -14 22 -21 40 -17 40 5 0 63 -13 128 -29 328 -81 436 -77 530 17
47 47 110 158 119 212 11 63 -13 79 -255 170 -121 46 -219 84 -217 86 1 1 63
4 137 7 135 6 151 8 245 28 170 38 269 158 268 322 -1 92 -12 119 -60 143 -36
18 -66 19 -481 19 l-443 0 -6 25 c-13 54 -71 123 -135 163 -41 25 -168 66
-229 73 -30 3 -65 8 -79 10 -33 6 -313 6 -331 0 -8 -3 -43 -7 -79 -10 -36 -3
-76 -8 -90 -11 -14 -2 -41 -6 -60 -9 -19 -2 -65 -11 -101 -19 l-66 -14 -24 46
c-84 161 -250 312 -456 415 -82 41 -110 44 -147 15z"/>
</g>
</svg>
